<svg width="86" height="86" viewBox="0 0 86 86" fill="none" xmlns="http://www.w3.org/2000/svg">
<path d="M43 75.25C62.7902 75.25 78.8333 59.2069 78.8333 39.4167C78.8333 19.6265 62.7902 3.58334 43 3.58334C23.2098 3.58334 7.16666 19.6265 7.16666 39.4167C7.16666 59.2069 23.2098 75.25 43 75.25Z" fill="#FFF59D"/>
<path d="M66.2917 39.4167C66.2917 25.6208 54.4667 14.6917 40.3125 16.3042C29.5625 17.5583 20.9625 26.1583 19.8875 36.9083C18.9917 45.15 22.3958 52.4958 28.1292 57.1542C30.6375 59.3042 32.25 62.35 32.25 65.7542V66.2917H53.75V66.1125C53.75 62.8875 55.1833 59.6625 57.6917 57.5125C62.8875 53.2125 66.2917 46.7625 66.2917 39.4167Z" fill="#FBC02D"/>
<path d="M54.825 36.1917L49.45 32.6083C48.9125 32.25 48.0167 32.25 47.4792 32.6083L43 35.475L38.7 32.6083C38.1625 32.25 37.2667 32.25 36.7292 32.6083L31.3542 36.1917C30.9958 36.55 30.6375 36.9083 30.6375 37.4458C30.6375 37.9833 30.6375 38.5208 30.9958 38.8792L37.8042 47.3V66.2917H41.3875V46.5833C41.3875 46.225 41.2083 45.8667 41.0292 45.5083L35.1167 38.1625L37.8042 36.3708L42.1042 39.2375C42.6417 39.5958 43.5375 39.5958 44.075 39.2375L48.375 36.3708L51.0625 38.1625L45.15 45.5083C44.9708 45.8667 44.7917 46.225 44.7917 46.5833V66.2917H48.375V47.3L55.1833 38.8792C55.5417 38.5208 55.7208 37.9833 55.5417 37.4458C55.3625 36.9083 55.1833 36.3708 54.825 36.1917Z" fill="#FFF59D"/>
<path d="M43 84.2083C45.9685 84.2083 48.375 81.8019 48.375 78.8333C48.375 75.8648 45.9685 73.4583 43 73.4583C40.0315 73.4583 37.625 75.8648 37.625 78.8333C37.625 81.8019 40.0315 84.2083 43 84.2083Z" fill="#5C6BC0"/>
<path d="M46.5833 80.625H39.4167C35.475 80.625 32.25 77.4 32.25 73.4583V64.5H53.75V73.4583C53.75 77.4 50.525 80.625 46.5833 80.625Z" fill="#9FA8DA"/>
<path d="M53.75 73.4583L32.9667 76.325C33.5042 77.5792 34.5792 78.8333 35.8333 79.55L52.675 77.2208C53.3917 76.1458 53.75 74.8917 53.75 73.4583ZM32.25 69.3375V72.9208L53.75 69.875V66.2917L32.25 69.3375Z" fill="#5C6BC0"/>
</svg>
